<?xml version="1.0" standalone="no"?>
<!DOCTYPE svg PUBLIC "-//W3C//DTD SVG 20010904//EN"
 "http://www.w3.org/TR/2001/REC-SVG-20010904/DTD/svg10.dtd">
<svg version="1.0" xmlns="http://www.w3.org/2000/svg"
 width="256.000000pt" height="256.000000pt" viewBox="0 0 256.000000 256.000000"
 preserveAspectRatio="xMidYMid meet">
<metadata>
Created by potrace 1.11, written by Peter Selinger 2001-2013
</metadata>
<g transform="translate(0.000000,256.000000) scale(0.100000,-0.100000)"
fill="#000000" stroke="none">
<path d="M363 2155 c-18 -8 -46 -28 -63 -45 -62 -64 -60 -34 -60 -814 0 -463
4 -724 11 -749 13 -47 79 -113 127 -127 58 -16 1771 -14 1808 3 50 21 82 47
106 85 l23 37 3 723 c2 481 -1 736 -8 762 -12 46 -67 106 -115 126 -51 21
-1784 20 -1832 -1z m505 -317 c17 -17 17 -279 0 -296 -17 -17 -439 -17 -456 0
-17 17 -17 279 0 296 17 17 439 17 456 0z m640 0 c17 -17 17 -279 0 -296 -17
-17 -439 -17 -456 0 -17 17 -17 279 0 296 17 17 439 17 456 0z m640 0 c17 -17
17 -279 0 -296 -17 -17 -439 -17 -456 0 -8 8 -12 56 -12 148 0 92 4 140 12
148 17 17 439 17 456 0z m-1280 -480 c17 -17 17 -279 0 -296 -17 -17 -439 -17
-456 0 -17 17 -17 279 0 296 17 17 439 17 456 0z m640 0 c17 -17 17 -279 0
-296 -17 -17 -439 -17 -456 0 -17 17 -17 279 0 296 17 17 439 17 456 0z m640
0 c17 -17 17 -279 0 -296 -17 -17 -439 -17 -456 0 -8 8 -12 56 -12 148 0 92 4
140 12 148 17 17 439 17 456 0z m-1280 -480 c17 -17 17 -279 0 -296 -17 -17
-439 -17 -456 0 -17 17 -17 279 0 296 17 17 439 17 456 0z m640 0 c17 -17 17
-279 0 -296 -17 -17 -439 -17 -456 0 -17 17 -17 279 0 296 17 17 439 17 456 0z
m640 0 c17 -17 17 -279 0 -296 -17 -17 -439 -17 -456 0 -8 8 -12 56 -12 148 0
92 4 140 12 148 17 17 439 17 456 0z"/>
</g>
</svg>
